# xmcd CD database file
#
# Track frame offsets:
#	150
#	24469
#	42408
#	52304
#	64441
#	84151
#	101478
#	112960
#	133099
#	152768
#	171498
#	185801
#	206417
#	222984
#	242916
#	254749
#	275730
#	295801
#	311249
#	332692
#
# Disc length: 4709 seconds
#
# Revision: 0
# Processed by: cddbd v1.5.2PL0 Copyright (c) Steve Scherf et al.
# Submitted via: CDex 2.16
#
DISCID=42126314
DTITLE=etc. - bossa nova breeze
DYEAR=1900
DGENRE=Jazz
TTITLE0=01 agua de beber
TTITLE1=02 voce e eu
TTITLE2=03 deixa
TTITLE3=04 obarquinho
TTITLE4=05 the girl from ipanema
TTITLE5=06 corcovado
TTITLE6=07 sambalanco
TTITLE7=08 mas que nada
TTITLE8=09 samba de orfeu
TTITLE9=10 chega de saudade
TTITLE10=11 favela (o morro nao tem vez)
TTITLE11=12 dindi
TTITLE12=13 aruanda
TTITLE13=14 tarde em itapoa
TTITLE14=15 o pato
TTITLE15=constant rain (chove chuva)
TTITLE16=17 a felicidade
TTITLE17=18 rosa morena
TTITLE18=19 how insensitive
TTITLE19=20 moca flor
EXTD=
EXTT0=
EXTT1=
EXTT2=
EXTT3=
EXTT4=
EXTT5=
EXTT6=
EXTT7=
EXTT8=
EXTT9=
EXTT10=
EXTT11=
EXTT12=
EXTT13=
EXTT14=
EXTT15=
EXTT16=
EXTT17=
EXTT18=
EXTT19=
PLAYORDER=
